HIERARCHY
ROOT hip
{
  OFFSET 5.51535 103.731 -2.80141
  CHANNELS 6 Xposition Yposition Zposition Zrotation Xrotation Yrotation
  JOINT abdomen
  {
    OFFSET 0 -1.186 -1.5018
    CHANNELS 6 Xposition Yposition Zposition Zrotation Xrotation Yrotation
    JOINT abdomen2
    {
      OFFSET 0 9.964 0.2134
      CHANNELS 6 Xposition Yposition Zposition Zrotation Xrotation Yrotation
      JOINT chest
      {
        OFFSET 0 13.134 -3.2573
        CHANNELS 6 Xposition Yposition Zposition Zrotation Xrotation Yrotation
        JOINT neck
        {
          OFFSET 0 20.686 -1.6905
          CHANNELS 6 Xposition Yposition Zposition Zrotation Xrotation Yrotation
          JOINT head
          {
            OFFSET 0 7.23801 -0.1237
            CHANNELS 6 Xposition Yposition Zposition Zrotation Xrotation Yrotation
            End Site
            {
              OFFSET 0 0 0
            }
          }
        }
        JOINT lCollar
        {
          OFFSET 1.7069 20.075 5.0056
          CHANNELS 6 Xposition Yposition Zposition Zrotation Xrotation Yrotation
          JOINT lShldr
          {
            OFFSET 13.6458 -0.0470195 -4.849
            CHANNELS 6 Xposition Yposition Zposition Zrotation Xrotation Yrotation
            JOINT lForeArm
            {
              OFFSET 28.3255 -0.97589 2.2888
              CHANNELS 6 Xposition Yposition Zposition Zrotation Xrotation Yrotation
              JOINT lHand
              {
                OFFSET 22.1583 -0.529998 10.8316
                CHANNELS 6 Xposition Yposition Zposition Zrotation Xrotation Yrotation
                JOINT lThumb1
                {
                  OFFSET 0.786 0.111997 2.5817
                  CHANNELS 6 Xposition Yposition Zposition Zrotation Xrotation Yrotation
                  JOINT lThumb2
                  {
                    OFFSET 0.360097 -0.877999 4.2331
                    CHANNELS 6 Xposition Yposition Zposition Zrotation Xrotation Yrotation
                    JOINT lThumb2_End
                    {
                      OFFSET 1.8127 -1.21601 2.2227
                      CHANNELS 6 Xposition Yposition Zposition Zrotation Xrotation Yrotation
                      End Site
                      {
                        OFFSET 0.0180981 -0.012195 0.0222007
                      }
                    }
                  }
                }
                JOINT lCarpal1
                {
                  OFFSET 0.9571 1.114 1.7695
                  CHANNELS 6 Xposition Yposition Zposition Zrotation Xrotation Yrotation
                  JOINT lIndex1
                  {
                    OFFSET 4.12461 0.486992 4.1451
                    CHANNELS 6 Xposition Yposition Zposition Zrotation Xrotation Yrotation
                    JOINT lIndex2
                    {
                      OFFSET 3.4052 -1.45401 2.7682
                      CHANNELS 6 Xposition Yposition Zposition Zrotation Xrotation Yrotation
                      JOINT lIndex2_End
                      {
                        OFFSET 1.45309 -1.79499 1.2713
                        CHANNELS 6 Xposition Yposition Zposition Zrotation Xrotation Yrotation
                        End Site
                        {
                          OFFSET 0.0144979 -0.0179083 0.0126995
                        }
                      }
                    }
                  }
                  JOINT lMid1
                  {
                    OFFSET 5.6954 0.209987 2.1184
                    CHANNELS 6 Xposition Yposition Zposition Zrotation Xrotation Yrotation
                    JOINT lMid2
                    {
                      OFFSET 3.9766 -1.53999 2.3863
                      CHANNELS 6 Xposition Yposition Zposition Zrotation Xrotation Yrotation
                      JOINT lMid2_End
                      {
                        OFFSET 1.4042 -1.926 1.125
                        CHANNELS 6 Xposition Yposition Zposition Zrotation Xrotation Yrotation
                        End Site
                        {
                          OFFSET 0.013999 -0.0193044 0.011301
                        }
                      }
                    }
                  }
                }
                JOINT lCarpal2
                {
                  OFFSET 2.0956 0.66 -0.3894
                  CHANNELS 6 Xposition Yposition Zposition Zrotation Xrotation Yrotation
                  JOINT lRing1
                  {
                    OFFSET 5.0395 -0.090013 2.4971
                    CHANNELS 6 Xposition Yposition Zposition Zrotation Xrotation Yrotation
                    JOINT lRing2
                    {
                      OFFSET 3.7921 -1.55199 1.4806
                      CHANNELS 6 Xposition Yposition Zposition Zrotation Xrotation Yrotation
                      JOINT lRing2_End
                      {
                        OFFSET 1.4655 -1.808 0.9609
                        CHANNELS 6 Xposition Yposition Zposition Zrotation Xrotation Yrotation
                        End Site
                        {
                          OFFSET 0.0147015 -0.0181014 0.00959957
                        }
                      }
                    }
                  }
                  JOINT lPinky1
                  {
                    OFFSET 4.9141 -1.269 0.3591
                    CHANNELS 6 Xposition Yposition Zposition Zrotation Xrotation Yrotation
                    JOINT lPinky2
                    {
                      OFFSET 3.1477 -1.685 0.8462
                      CHANNELS 6 Xposition Yposition Zposition Zrotation Xrotation Yrotation
                      JOINT lPinky2_End
                      {
                        OFFSET 0.805498 -1.58501 0.795499
                        CHANNELS 6 Xposition Yposition Zposition Zrotation Xrotation Yrotation
                        End Site
                        {
                          OFFSET 0.00809703 -0.0157944 0.00799848
                        }
                      }
                    }
                  }
                }
              }
            }
          }
        }
        JOINT rCollar
        {
          OFFSET -1.7069 20.075 5.0056
          CHANNELS 6 Xposition Yposition Zposition Zrotation Xrotation Yrotation
          JOINT rShldr
          {
            OFFSET -13.6458 -0.0470107 -4.849
            CHANNELS 6 Xposition Yposition Zposition Zrotation Xrotation Yrotation
            JOINT rForeArm
            {
              OFFSET -28.3255 -0.975895 2.2888
              CHANNELS 6 Xposition Yposition Zposition Zrotation Xrotation Yrotation
              JOINT rHand
              {
                OFFSET -22.1583 -0.530007 10.8316
                CHANNELS 6 Xposition Yposition Zposition Zrotation Xrotation Yrotation
                JOINT rThumb1
                {
                  OFFSET -0.785997 0.112005 2.5817
                  CHANNELS 6 Xposition Yposition Zposition Zrotation Xrotation Yrotation
                  JOINT rThumb2
                  {
                    OFFSET -0.360106 -0.877994 4.2331
                    CHANNELS 6 Xposition Yposition Zposition Zrotation Xrotation Yrotation
                    JOINT rThumb2_End
                    {
                      OFFSET -1.8127 -1.216 2.2227
                      CHANNELS 6 Xposition Yposition Zposition Zrotation Xrotation Yrotation
                      End Site
                      {
                        OFFSET -0.0180972 -0.0121973 0.0222005
                      }
                    }
                  }
                }
                JOINT rCarpal1
                {
                  OFFSET -0.9571 1.114 1.7695
                  CHANNELS 6 Xposition Yposition Zposition Zrotation Xrotation Yrotation
                  JOINT rIndex1
                  {
                    OFFSET -4.1246 0.487011 4.1451
                    CHANNELS 6 Xposition Yposition Zposition Zrotation Xrotation Yrotation
                    JOINT rIndex2
                    {
                      OFFSET -3.4052 -1.45401 2.7682
                      CHANNELS 6 Xposition Yposition Zposition Zrotation Xrotation Yrotation
                      JOINT rIndex2_End
                      {
                        OFFSET -1.4531 -1.795 1.2713
                        CHANNELS 6 Xposition Yposition Zposition Zrotation Xrotation Yrotation
                        End Site
                        {
                          OFFSET -0.0145077 -0.0180048 0.0127017
                        }
                      }
                    }
                  }
                  JOINT rMid1
                  {
                    OFFSET -5.6954 0.210002 2.1184
                    CHANNELS 6 Xposition Yposition Zposition Zrotation Xrotation Yrotation
                    JOINT rMid2
                    {
                      OFFSET -3.9766 -1.54 2.3863
                      CHANNELS 6 Xposition Yposition Zposition Zrotation Xrotation Yrotation
                      JOINT rMid2_End
                      {
                        OFFSET -1.4042 -1.926 1.125
                        CHANNELS 6 Xposition Yposition Zposition Zrotation Xrotation Yrotation
                        End Site
                        {
                          OFFSET -0.0139948 -0.0192916 0.0112994
                        }
                      }
                    }
                  }
                }
                JOINT rCarpal2
                {
                  OFFSET -2.0956 0.66 -0.3894
                  CHANNELS 6 Xposition Yposition Zposition Zrotation Xrotation Yrotation
                  JOINT rRing1
                  {
                    OFFSET -5.03951 -0.0899879 2.4971
                    CHANNELS 6 Xposition Yposition Zposition Zrotation Xrotation Yrotation
                    JOINT rRing2
                    {
                      OFFSET -3.7921 -1.55201 1.4806
                      CHANNELS 6 Xposition Yposition Zposition Zrotation Xrotation Yrotation
                      JOINT rRing2_End
                      {
                        OFFSET -1.4655 -1.808 0.960901
                        CHANNELS 6 Xposition Yposition Zposition Zrotation Xrotation Yrotation
                        End Site
                        {
                          OFFSET -0.0146934 -0.0180999 0.00959832
                        }
                      }
                    }
                  }
                  JOINT rPinky1
                  {
                    OFFSET -4.91411 -1.26899 0.359202
                    CHANNELS 6 Xposition Yposition Zposition Zrotation Xrotation Yrotation
                    JOINT rPinky2
                    {
                      OFFSET -3.14769 -1.68501 0.846199
                      CHANNELS 6 Xposition Yposition Zposition Zrotation Xrotation Yrotation
                      JOINT rPinky2_End
                      {
                        OFFSET -0.805498 -1.585 0.7955
                        CHANNELS 6 Xposition Yposition Zposition Zrotation Xrotation Yrotation
                        End Site
                        {
                          OFFSET -0.00810035 -0.0158035 0.00800029
                        }
                      }
                    }
                  }
                }
              }
            }
          }
        }
      }
    }
  }
  JOINT lThigh
  {
    OFFSET 8.367 -8.2066 0.5982
    CHANNELS 6 Xposition Yposition Zposition Zrotation Xrotation Yrotation
    JOINT lShin
    {
      OFFSET 2.1923 -43.463 -0.4932
      CHANNELS 6 Xposition Yposition Zposition Zrotation Xrotation Yrotation
      JOINT lFoot
      {
        OFFSET 0.733301 -45.8593 -2.6451
        CHANNELS 6 Xposition Yposition Zposition Zrotation Xrotation Yrotation
        End Site
        {
          OFFSET 2.6618 -4.2699 12.3931
        }
      }
    }
  }
  JOINT rThigh
  {
    OFFSET -8.367 -8.2066 0.5982
    CHANNELS 6 Xposition Yposition Zposition Zrotation Xrotation Yrotation
    JOINT rShin
    {
      OFFSET -2.1923 -43.463 -0.4931
      CHANNELS 6 Xposition Yposition Zposition Zrotation Xrotation Yrotation
      JOINT rFoot
      {
        OFFSET -0.733299 -45.8593 -2.6451
        CHANNELS 6 Xposition Yposition Zposition Zrotation Xrotation Yrotation
        End Site
        {
          OFFSET -2.6618 -4.2699 12.3931
        }
      }
    }
  }
}
MOTION
Frames:	4
Frame Time:	0.0333333
-0.439862 40.9216 19.6765 4.54634 -23.457 -1.37032 1.39467e-006 -1.186 -1.5018 -2.00995 9.79797 0.131617 9.80628e-009 9.964 0.2134 -4.13602 19.5848 0.632168 -3.02198e-008 13.134 -3.2573 -4.13602 19.5848 0.632168 7.38818e-006 20.686 -1.6905 4.35337 -3.93669 5.80904 5.58082e-007 7.23805 -0.123704 6.32374 -24.0988 5.50266 1.7069 20.075 5.0056 9.09281 5.12338 6.06367 13.6458 -0.0470166 -4.849 -65.6972 0.505556 -1.62659 28.3255 -0.975902 2.2888 -32.4233 24.3107 -73.5085 22.1583 -0.529989 10.8316 39.8336 34.7869 -34.7693 0.786006 0.111996 2.5817 -5.09274 -9.97143 -17.032 0.360097 -0.877999 4.2331 3.32559 0.581343 6.13291 1.8127 -1.21601 2.2227 6.60302 1.52468 12.2843 0.9571 1.114 1.7695 -4.77083e-015 -7.15625e-015 1.59028e-015 4.1246 0.486992 4.1451 10.2826 -6.25459 1.45302 3.4052 -1.454 2.7682 -7.20974 4.67108 6.73776 1.4531 -1.79499 1.2713 -7.13611 5.24168 6.40477 5.6954 0.209987 2.1184 17.1079 -9.60451 -5.9183 3.9766 -1.53999 2.3863 -1.08713e-005 2.54275e-006 1.85162e-007 1.4042 -1.926 1.125 6.2821e-006 -1.15528e-005 -8.2571e-006 2.0956 0.66 -0.3894 -4.77083e-015 -7.15625e-015 1.59028e-015 5.0395 -0.0900124 2.4971 18.9597 -13.7839 -8.9739 3.7921 -1.55199 1.4806 3.95742 -2.19114 -1.82112 1.4655 -1.808 0.9609 3.95741 -2.19106 -1.82122 4.9141 -1.269 0.359099 31.8178 -22.2366 -9.74159 3.1477 -1.685 0.8462 3.9109 -2.31339 -1.76863 0.805498 -1.58501 0.795501 3.91093 -2.31345 -1.76854 -1.7069 20.075 5.0056 -23.8685 2.90093 22.4932 -13.6458 -0.047015 -4.849 22.8552 -45.5586 47.0741 -28.3255 -0.975893 2.28881 20.7628 -26.8388 55.1768 -22.1583 -0.53 10.8316 -15.3568 38.8582 -2.54111 -0.786001 0.112003 2.5817 -0.513717 3.48687 -10.2881 -0.360107 -0.877992 4.2331 -0.168324 0.147048 -0.51275 -1.8127 -1.216 2.2227 -1.80009 1.72314 -5.69744 -0.9571 1.114 1.7695 -5.51738e-033 3.97569e-016 7.95139e-016 -4.1246 0.487013 4.1451 15.3104 7.29065 -8.38662 -3.4052 -1.45401 2.7682 9.90447 3.1551 -1.6607 -1.45309 -1.79499 1.2713 12.5482 3.93856 -2.19115 -5.69541 0.210003 2.1184 16.6776 8.15276 -4.04101 -3.9766 -1.54 2.3863 24.7485 8.17145 -5.19553 -1.4042 -1.92599 1.125 16.403 5.71317 -3.07163 -2.0956 0.66 -0.3894 -5.51738e-033 3.97569e-016 7.95139e-016 -5.03951 -0.0899908 2.4971 15.9324 4.45881 -3.11276 -3.7921 -1.552 1.4806 24.1939 8.65745 -6.19863 -1.4655 -1.808 0.9609 15.928 6.05218 -3.70266 -4.91411 -1.26899 0.359202 18.5391 3.68665 -4.66503 -3.1477 -1.68501 0.846198 20.3736 8.14629 -4.85998 -0.805497 -1.585 0.7955 19.6746 7.90414 -4.65014 8.36701 -8.2066 0.598201 46.5954 -82.9466 38.8814 2.1923 -43.463 -0.493197 -174.774 49.4878 159.825 0.733302 -45.8593 -2.6451 2.74003 -21.377 -10.7101 -8.36701 -8.2066 0.598202 -28.5551 -1.97585 27.1732 -2.19229 -43.463 -0.493079 153.82 42.8668 -138.436 -0.733301 -45.8593 -2.64511 12.5031 -74.8798 26.8596 
-0.398744 40.6422 19.6433 4.54363 -23.4458 -1.3896 2.89207e-006 -1.186 -1.5018 -2.00405 9.60131 0.162321 -2.15262e-009 9.964 0.213401 -4.125 19.1906 0.685536 -4.85165e-008 13.134 -3.2573 -4.125 19.1906 0.685535 1.47682e-006 20.686 -1.6905 4.12502 -3.39324 6.40849 1.53979e-007 7.23803 -0.123699 6.42215 -23.3883 6.02493 1.7069 20.075 5.0056 9.09283 5.12338 6.06366 13.6458 -0.0470133 -4.849 -65.8765 0.658099 -1.93281 28.3255 -0.97589 2.2888 -32.3367 23.8627 -72.7164 22.1583 -0.529993 10.8316 39.1944 34.8767 -34.1912 0.786002 0.111997 2.5817 -5.09273 -9.97144 -17.032 0.360096 -0.878 4.2331 3.32559 0.581311 6.13292 1.8127 -1.21601 2.2227 6.60301 1.52466 12.2843 0.9571 1.114 1.7695 1.59028e-015 -5.56597e-015 -0 4.1246 0.486993 4.1451 10.2826 -6.2546 1.45301 3.4052 -1.45401 2.7682 -7.20973 4.67107 6.73774 1.4531 -1.79499 1.2713 -7.13613 5.24161 6.4048 5.6954 0.209988 2.1184 17.1079 -9.60452 -5.91828 3.9766 -1.53999 2.3863 1.35563e-006 -1.10284e-005 -1.17275e-005 1.4042 -1.926 1.125 1.25695e-005 -2.20818e-005 -7.04294e-007 2.0956 0.66 -0.3894 1.59028e-015 -5.56597e-015 -0 5.0395 -0.0900129 2.4971 18.9597 -13.7839 -8.97388 3.7921 -1.55199 1.4806 3.95741 -2.19118 -1.82109 1.4655 -1.808 0.960898 3.95742 -2.19107 -1.82122 4.9141 -1.269 0.359101 31.8178 -22.2366 -9.74161 3.1477 -1.685 0.846199 3.91092 -2.3134 -1.76863 0.805496 -1.58501 0.7955 3.91093 -2.3135 -1.7685 -1.7069 20.075 5.0056 -23.8685 2.90094 22.4932 -13.6458 -0.0470162 -4.849 23.7874 -44.2542 46.3383 -28.3255 -0.975896 2.2888 21.4029 -26.0515 56.9224 -22.1583 -0.530012 10.8316 -16.211 39.2364 -1.82079 -0.785999 0.112003 2.5817 -0.916156 4.13288 -11.4098 -0.360106 -0.877995 4.2331 -0.192592 0.168464 -0.586974 -1.8127 -1.216 2.2227 -2.0428 1.98329 -6.50634 -0.9571 1.114 1.7695 -3.18055e-015 -1.59028e-015 7.95139e-016 -4.12461 0.487013 4.1451 18.6202 8.50932 -9.95977 -3.4052 -1.45401 2.7682 12.5625 3.94446 -2.19672 -1.4531 -1.795 1.2713 15.0857 4.66431 -2.73211 -5.6954 0.21 2.1184 16.1627 8.33365 -4.04962 -3.9766 -1.54 2.3863 22.3055 7.4881 -4.53926 -1.4042 -1.926 1.125 15.8574 5.54067 -2.94488 -2.0956 0.66 -0.3894 -3.18055e-015 -1.59028e-015 7.95139e-016 -5.03951 -0.0899838 2.4971 15.126 4.69437 -2.9622 -3.7921 -1.55201 1.4806 21.7415 7.92736 -5.42264 -1.4655 -1.808 0.9609 15.3483 5.85445 -3.54102 -4.91411 -1.26899 0.359202 16.7643 4.2761 -3.16928 -3.1477 -1.685 0.846198 18.5907 7.52236 -4.3299 -0.8055 -1.585 0.7955 17.3487 7.07661 -3.97151 8.36701 -8.2066 0.5982 49.329 -83.3152 41.582 2.1923 -43.463 -0.493199 -174.808 49.2044 159.872 0.733301 -45.8594 -2.6451 2.66584 -21.1911 -10.7137 -8.36701 -8.20661 0.5982 -28.6998 -1.92335 27.502 -2.19231 -43.463 -0.493066 153.919 42.5891 -138.334 -0.733293 -45.8593 -2.64508 13.3566 -75.1828 27.7341 
-0.352306 40.423 19.5982 4.55508 -23.444 -1.36611 1.73619e-007 -1.186 -1.5018 -1.99593 9.4336 0.216016 -1.13423e-007 9.96399 0.2134 -4.11396 18.8535 0.786686 -1.87112e-008 13.134 -3.2573 -4.11395 18.8535 0.786687 -2.13618e-006 20.6863 -1.69052 3.75999 -2.88497 7.45658 -7.01043e-007 7.23801 -0.123688 6.57341 -22.5931 7.03052 1.7069 20.075 5.0056 9.09284 5.12337 6.06363 13.6458 -0.0470139 -4.849 -66.0958 0.844442 -2.36168 28.3255 -0.975898 2.2888 -32.2598 23.489 -72.0801 22.1583 -0.529989 10.8316 38.5599 35.1046 -33.6 0.786005 0.111996 2.5817 -5.09276 -9.97147 -17.032 0.360099 -0.877998 4.2331 3.32556 0.581304 6.13293 1.8127 -1.21601 2.2227 6.60301 1.52465 12.2843 0.9571 1.114 1.7695 -4.41391e-032 -7.95139e-016 -3.18055e-015 4.12461 0.486994 4.1451 10.2826 -6.25459 1.45303 3.4052 -1.45401 2.7682 -7.20975 4.67106 6.73773 1.4531 -1.79499 1.2713 -7.13611 5.24173 6.40475 5.69541 0.20999 2.1184 17.1079 -9.60452 -5.91828 3.9766 -1.53999 2.3863 -1.78492e-005 -1.30722e-005 -1.18858e-005 1.4042 -1.926 1.125 4.12529e-006 -2.85475e-005 3.58958e-005 2.0956 0.66 -0.3894 -4.41391e-032 -7.95139e-016 -3.18055e-015 5.0395 -0.0900107 2.4971 18.9596 -13.7839 -8.97387 3.7921 -1.55199 1.4806 3.95739 -2.19125 -1.82102 1.4655 -1.808 0.960902 3.9574 -2.19106 -1.82122 4.9141 -1.269 0.359099 31.8178 -22.2366 -9.74159 3.1477 -1.685 0.8462 3.9109 -2.31341 -1.76863 0.805498 -1.58501 0.795498 3.9109 -2.3134 -1.76861 -1.7069 20.075 5.0056 -23.8685 2.90096 22.4931 -13.6458 -0.0470146 -4.849 24.6042 -43.0326 45.5325 -28.3255 -0.975891 2.28879 22.0531 -25.25 58.6987 -22.1583 -0.530005 10.8316 -17.0205 39.6176 -1.15491 -0.786002 0.112007 2.5817 -1.20828 4.64681 -12.2854 -0.360105 -0.877994 4.2331 -0.211605 0.185277 -0.645167 -1.81269 -1.216 2.2227 -2.23297 2.19234 -7.14812 -0.9571 1.114 1.7695 -6.36111e-015 1.59028e-015 -0 -4.1246 0.487012 4.1451 21.2348 9.42445 -11.231 -3.4052 -1.45401 2.7682 14.6339 4.5371 -2.63326 -1.4531 -1.795 1.2713 17.0771 5.21486 -3.17781 -5.6954 0.21 2.1184 15.7606 8.47462 -4.05704 -3.9766 -1.54 2.3863 20.4053 6.94141 -4.05297 -1.4042 -1.92599 1.125 15.4245 5.4028 -2.84542 -2.0956 0.66 -0.3894 -6.36111e-015 1.59028e-015 -0 -5.03951 -0.0899845 2.4971 14.4954 4.87694 -2.84611 -3.7921 -1.55201 1.4806 19.8293 7.33922 -4.84128 -1.4655 -1.80801 0.960901 14.8945 5.69829 -3.41577 -4.91411 -1.26899 0.359202 15.3399 4.70821 -1.99893 -3.1477 -1.68501 0.846198 17.2021 7.0232 -3.92962 -0.805503 -1.585 0.7955 15.5393 6.41081 -3.46542 8.367 -8.2066 0.598203 51.5028 -83.6406 43.772 2.1923 -43.463 -0.493203 -174.84 48.9989 159.932 0.733298 -45.8593 -2.6451 2.6115 -21.0053 -10.7049 -8.367 -8.2066 0.5982 -28.8764 -1.89455 27.7525 -2.19232 -43.463 -0.493095 153.989 42.3586 -138.2 -0.733297 -45.8593 -2.6451 14.011 -75.3897 28.4337 
-0.301793 40.3326 19.5352 4.59719 -23.464 -1.24883 1.43245e-007 -1.186 -1.5018 -1.98575 9.32837 0.301668 3.9193e-009 9.964 0.2134 -4.10538 18.6401 0.955283 2.5406e-008 13.134 -3.2573 -4.10538 18.6401 0.955282 -7.79366e-007 20.6862 -1.69051 3.25554 -2.50085 8.99874 2.47442e-007 7.23806 -0.123697 6.7586 -21.7829 8.57958 1.7069 20.075 5.0056 9.09285 5.12337 6.06357 13.6458 -0.0470114 -4.849 -66.3781 1.07551 -2.97934 28.3255 -0.975908 2.2888 -32.2187 23.2801 -71.789 22.1583 -0.529986 10.8316 37.9959 35.5604 -33.0366 0.786004 0.111998 2.5817 -5.09278 -9.97153 -17.032 0.360096 -0.878 4.2331 3.32551 0.581251 6.13295 1.8127 -1.21601 2.2227 6.60302 1.52466 12.2843 0.9571 1.114 1.7695 -1.59028e-015 3.18055e-015 -0 4.12461 0.486992 4.1451 10.2826 -6.25463 1.45303 3.4052 -1.454 2.7682 -7.20978 4.67102 6.73774 1.4531 -1.79499 1.2713 -7.1361 5.24172 6.40476 5.69541 0.209987 2.1184 17.1079 -9.60453 -5.91829 3.9766 -1.53999 2.3863 -4.2424e-006 1.64249e-007 2.30076e-006 1.4042 -1.926 1.125 -1.52563e-006 -7.42812e-005 5.7787e-005 2.0956 0.66 -0.3894 -1.59028e-015 3.18055e-015 -0 5.0395 -0.0900105 2.4971 18.9596 -13.784 -8.97386 3.7921 -1.55199 1.4806 3.95743 -2.1911 -1.82113 1.4655 -1.808 0.9609 3.9574 -2.19109 -1.82119 4.9141 -1.269 0.359099 31.8178 -22.2366 -9.74159 3.1477 -1.685 0.846201 3.9109 -2.31341 -1.76863 0.805498 -1.58501 0.7955 3.91092 -2.31341 -1.76861 -1.7069 20.075 5.0056 -23.8685 2.90093 22.4933 -13.6458 -0.0470093 -4.849 25.267 -42.0899 45.0456 -28.3255 -0.975889 2.2888 22.4794 -24.5515 59.9005 -22.1583 -0.530008 10.8316 -17.681 39.9349 -0.634791 -0.786 0.112006 2.5817 -1.32124 4.85768 -12.6383 -0.360108 -0.877991 4.2331 -0.21617 0.195145 -0.673281 -1.81269 -1.216 2.2227 -2.30913 2.27737 -7.40716 -0.9571 1.114 1.7695 2.20695e-032 -7.95139e-016 1.59028e-015 -4.12461 0.48701 4.1451 22.2975 9.78412 -11.7543 -3.4052 -1.45401 2.7682 15.4756 4.77349 -2.81761 -1.4531 -1.79499 1.2713 17.8831 5.4328 -3.36335 -5.69541 0.210004 2.1184 15.5983 8.53145 -4.06018 -3.9766 -1.54 2.3863 19.6366 6.70668 -3.85432 -1.4042 -1.926 1.125 15.2497 5.34691 -2.80558 -2.0956 0.66 -0.3894 2.20695e-032 -7.95139e-016 1.59028e-015 -5.03951 -0.0899851 2.4971 14.2406 4.95028 -2.79962 -3.79209 -1.55201 1.4806 19.0651 7.0888 -4.60922 -1.4655 -1.80801 0.960901 14.7114 5.63497 -3.36556 -4.91411 -1.26899 0.359203 14.7606 4.88171 -1.52915 -3.1477 -1.685 0.846198 16.6398 6.82685 -3.77484 -0.8055 -1.585 0.7955 14.8109 6.13744 -3.26724 8.367 -8.20661 0.5982 52.033 -83.876 44.4175 2.1923 -43.463 -0.493192 -174.863 48.9534 160.002 0.7333 -45.8593 -2.6451 2.61561 -20.8324 -10.6804 -8.36701 -8.20661 0.598201 -29.0863 -1.89775 27.8233 -2.19229 -43.463 -0.493099 154.003 42.2366 -138.038 -0.733304 -45.8593 -2.64511 14.1985 -75.4104 28.6943 
